<svg width="17" height="15" viewBox="0 0 17 15" fill="none" xmlns="http://www.w3.org/2000/svg">
<path d="M12.25 5.10005H9.85V0.300049H6.65V5.10005H4.25L8.25 9.10005L12.25 5.10005ZM15.7204 10.3256C15.5524 10.1464 14.4316 8.94725 14.1116 8.63445C13.8874 8.41949 13.5886 8.29965 13.278 8.30005H11.8724L14.3236 10.6952H11.4884C11.4499 10.6945 11.4118 10.704 11.3781 10.7227C11.3444 10.7414 11.3162 10.7686 11.2964 10.8016L10.6436 12.3H5.8564L5.2036 10.8016C5.18366 10.7687 5.15544 10.7416 5.12176 10.7229C5.08808 10.7042 5.05011 10.6947 5.0116 10.6952H2.1764L4.6268 8.30005H3.222C2.9044 8.30005 2.6012 8.42725 2.3884 8.63445C2.0684 8.94805 0.947603 10.1472 0.779603 10.3256C0.388403 10.7424 0.173203 11.0744 0.275603 11.4848L0.724403 13.944C0.826803 14.3552 1.2772 14.6928 1.726 14.6928H14.7756C15.2244 14.6928 15.6748 14.3552 15.7772 13.944L16.226 11.4848C16.3268 11.0744 16.1124 10.7424 15.7204 10.3256Z" fill="white"/>
</svg>
