<svg width="17" height="16" viewBox="0 0 17 16" fill="none" xmlns="http://www.w3.org/2000/svg">
<path d="M12.6162 0.5C13.7337 0.5 14.8087 0.941667 15.5995 1.73417C16.3912 2.525 16.8337 3.59167 16.8337 4.70833V11.2917C16.8337 13.6167 14.942 15.5 12.6162 15.5H4.38366C2.05783 15.5 0.166992 13.6167 0.166992 11.2917V4.70833C0.166992 2.38333 2.04949 0.5 4.38366 0.5H12.6162ZM13.5587 4.83333C13.3837 4.82417 13.217 4.88333 13.0912 5L9.33366 8C8.85033 8.40083 8.15783 8.40083 7.66699 8L3.91699 5C3.65783 4.80833 3.29949 4.83333 3.08366 5.05833C2.85866 5.28333 2.83366 5.64167 3.02449 5.89167L3.13366 6L6.92532 8.95833C7.39199 9.325 7.95783 9.525 8.55033 9.525C9.14116 9.525 9.71699 9.325 10.1828 8.95833L13.942 5.95L14.0087 5.88333C14.2078 5.64167 14.2078 5.29167 13.9995 5.05C13.8837 4.92583 13.7245 4.85 13.5587 4.83333Z" fill="#10983A"/>
</svg>
