<svg width="15" height="14" viewBox="0 0 15 14" fill="none" xmlns="http://www.w3.org/2000/svg">
<path fill-rule="evenodd" clip-rule="evenodd" d="M11.1058 0.333344C13.3258 0.333344 14.9998 2.14468 14.9998 4.54668V9.12534C14.9998 10.3547 14.5652 11.4653 13.7752 12.2533C13.0665 12.9593 12.1472 13.3333 11.1165 13.3333H4.54784C3.51917 13.3333 2.6005 12.96 1.89117 12.2533C1.10117 11.4653 0.666504 10.3547 0.666504 9.12534V4.54668C0.666504 2.14468 2.3405 0.333344 4.5605 0.333344H11.1058ZM11.1058 1.33334H4.5605C2.88384 1.33334 1.6665 2.68468 1.6665 4.54668V9.12534C1.6665 10.0873 1.99717 10.9467 2.59717 11.5447C3.1145 12.0613 3.78984 12.3333 4.54984 12.3333H11.1058C11.1072 12.332 11.1125 12.3333 11.1165 12.3333C11.8772 12.3333 12.5518 12.0613 13.0692 11.5447C13.6698 10.9467 13.9998 10.0873 13.9998 9.12534V4.54668C13.9998 2.68468 12.7825 1.33334 11.1058 1.33334ZM12.1565 4.41921C12.3305 4.63321 12.2978 4.94788 12.0838 5.12254L9.12117 7.53054C8.7465 7.82788 8.2985 7.97654 7.85117 7.97654C7.40517 7.97654 6.9605 7.82921 6.5885 7.53454L3.5985 5.12388C3.38317 4.95054 3.34984 4.63521 3.5225 4.42054C3.6965 4.20654 4.01117 4.17254 4.22584 4.34521L7.21317 6.75321C7.5885 7.05054 8.11717 7.05054 8.49517 6.75054L11.4525 4.34654C11.6672 4.17121 11.9818 4.20454 12.1565 4.41921Z" fill="white"/>
</svg>
