<svg width="18" height="18" viewBox="0 0 18 18" fill="none" xmlns="http://www.w3.org/2000/svg">
<path d="M5.50008 0.666656H12.5001C15.1667 0.666656 17.3334 2.83332 17.3334 5.49999V12.5C17.3334 13.7819 16.8242 15.0112 15.9178 15.9177C15.0113 16.8241 13.782 17.3333 12.5001 17.3333H5.50008C2.83341 17.3333 0.666748 15.1667 0.666748 12.5V5.49999C0.666748 4.21811 1.17597 2.98873 2.0824 2.08231C2.98882 1.17588 4.2182 0.666656 5.50008 0.666656ZM5.33341 2.33332C4.53777 2.33332 3.7747 2.64939 3.21209 3.212C2.64949 3.77461 2.33341 4.53767 2.33341 5.33332V12.6667C2.33341 14.325 3.67508 15.6667 5.33341 15.6667H12.6667C13.4624 15.6667 14.2255 15.3506 14.7881 14.788C15.3507 14.2254 15.6667 13.4623 15.6667 12.6667V5.33332C15.6667 3.67499 14.3251 2.33332 12.6667 2.33332H5.33341ZM13.3751 3.58332C13.6513 3.58332 13.9163 3.69307 14.1117 3.88842C14.307 4.08377 14.4167 4.34872 14.4167 4.62499C14.4167 4.90126 14.307 5.16621 14.1117 5.36156C13.9163 5.55691 13.6513 5.66666 13.3751 5.66666C13.0988 5.66666 12.8339 5.55691 12.6385 5.36156C12.4432 5.16621 12.3334 4.90126 12.3334 4.62499C12.3334 4.34872 12.4432 4.08377 12.6385 3.88842C12.8339 3.69307 13.0988 3.58332 13.3751 3.58332ZM9.00008 4.83332C10.1052 4.83332 11.165 5.27231 11.9464 6.05371C12.7278 6.83511 13.1667 7.89492 13.1667 8.99999C13.1667 10.1051 12.7278 11.1649 11.9464 11.9463C11.165 12.7277 10.1052 13.1667 9.00008 13.1667C7.89501 13.1667 6.8352 12.7277 6.0538 11.9463C5.2724 11.1649 4.83341 10.1051 4.83341 8.99999C4.83341 7.89492 5.2724 6.83511 6.0538 6.05371C6.8352 5.27231 7.89501 4.83332 9.00008 4.83332ZM9.00008 6.49999C8.33704 6.49999 7.70115 6.76338 7.23231 7.23222C6.76347 7.70106 6.50008 8.33695 6.50008 8.99999C6.50008 9.66303 6.76347 10.2989 7.23231 10.7678C7.70115 11.2366 8.33704 11.5 9.00008 11.5C9.66312 11.5 10.299 11.2366 10.7678 10.7678C11.2367 10.2989 11.5001 9.66303 11.5001 8.99999C11.5001 8.33695 11.2367 7.70106 10.7678 7.23222C10.299 6.76338 9.66312 6.49999 9.00008 6.49999Z" fill="white"/>
</svg>
