<svg width="14" height="17" viewBox="0 0 14 17" fill="none" xmlns="http://www.w3.org/2000/svg">
<path d="M7.00065 8.5C7.45898 8.5 7.85148 8.33667 8.17815 8.01C8.50426 7.68389 8.66732 7.29167 8.66732 6.83334C8.66732 6.375 8.50426 5.9825 8.17815 5.65584C7.85148 5.32973 7.45898 5.16667 7.00065 5.16667C6.54232 5.16667 6.1501 5.32973 5.82399 5.65584C5.49732 5.9825 5.33398 6.375 5.33398 6.83334C5.33398 7.29167 5.49732 7.68389 5.82399 8.01C6.1501 8.33667 6.54232 8.5 7.00065 8.5ZM7.00065 16.8333C4.76454 14.9306 3.09454 13.1631 1.99065 11.5308C0.886207 9.89917 0.333984 8.38889 0.333984 7C0.333984 4.91667 1.00426 3.25695 2.34482 2.02084C3.68482 0.784727 5.23676 0.166672 7.00065 0.166672C8.76454 0.166672 10.3165 0.784727 11.6565 2.02084C12.997 3.25695 13.6673 4.91667 13.6673 7C13.6673 8.38889 13.1154 9.89917 12.0115 11.5308C10.907 13.1631 9.23676 14.9306 7.00065 16.8333Z" fill="white"/>
</svg>
