<svg width="18" height="17" viewBox="0 0 18 17" fill="none" xmlns="http://www.w3.org/2000/svg">
<path d="M16.5 9.335V9C16.5 8.01509 16.306 7.03982 15.9291 6.12987C15.5522 5.21993 14.9997 4.39314 14.3033 3.6967C13.6069 3.00026 12.7801 2.44781 11.8701 2.0709C10.9602 1.69399 9.98491 1.5 9 1.5C8.01509 1.5 7.03982 1.69399 6.12987 2.0709C5.21993 2.44781 4.39314 3.00026 3.6967 3.6967C3.00026 4.39314 2.44781 5.21993 2.0709 6.12987C1.69399 7.03982 1.5 8.01509 1.5 9V9.335C1.88004 9.11558 2.31115 9.00007 2.74998 9.00006C3.18882 9.00006 3.61993 9.11557 3.99997 9.33498C4.38002 9.5544 4.69561 9.86998 4.91504 10.25C5.13447 10.6301 5.24999 11.0612 5.25 11.5V14C5.25 14.663 4.98661 15.2989 4.51777 15.7678C4.04893 16.2366 3.41304 16.5 2.75 16.5C2.08696 16.5 1.45107 16.2366 0.982233 15.7678C0.513392 15.2989 0.25 14.663 0.25 14V9C0.25 6.67936 1.17187 4.45376 2.81282 2.81282C4.45376 1.17187 6.67936 0.25 9 0.25C11.3206 0.25 13.5462 1.17187 15.1872 2.81282C16.8281 4.45376 17.75 6.67936 17.75 9V14C17.75 14.663 17.4866 15.2989 17.0178 15.7678C16.5489 16.2366 15.913 16.5 15.25 16.5C14.587 16.5 13.9511 16.2366 13.4822 15.7678C13.0134 15.2989 12.75 14.663 12.75 14V11.5C12.75 11.0612 12.8655 10.6301 13.085 10.25C13.3044 9.86998 13.62 9.5544 14 9.33498C14.3801 9.11557 14.8112 9.00006 15.25 9.00006C15.6889 9.00007 16.12 9.11558 16.5 9.335ZM16.5 11.5C16.5 11.1685 16.3683 10.8505 16.1339 10.6161C15.8995 10.3817 15.5815 10.25 15.25 10.25C14.9185 10.25 14.6005 10.3817 14.3661 10.6161C14.1317 10.8505 14 11.1685 14 11.5V14C14 14.3315 14.1317 14.6495 14.3661 14.8839C14.6005 15.1183 14.9185 15.25 15.25 15.25C15.5815 15.25 15.8995 15.1183 16.1339 14.8839C16.3683 14.6495 16.5 14.3315 16.5 14V11.5ZM1.5 11.5V14C1.5 14.3315 1.6317 14.6495 1.86612 14.8839C2.10054 15.1183 2.41848 15.25 2.75 15.25C3.08152 15.25 3.39946 15.1183 3.63388 14.8839C3.8683 14.6495 4 14.3315 4 14V11.5C4 11.1685 3.8683 10.8505 3.63388 10.6161C3.39946 10.3817 3.08152 10.25 2.75 10.25C2.41848 10.25 2.10054 10.3817 1.86612 10.6161C1.6317 10.8505 1.5 11.1685 1.5 11.5Z" fill="white"/>
</svg>
