<svg width="14" height="14" viewBox="0 0 14 14" fill="none" xmlns="http://www.w3.org/2000/svg">
<path fill-rule="evenodd" clip-rule="evenodd" d="M1.90627 2.37381C1.90761 2.37381 1.87427 2.40848 1.83227 2.44982C1.67094 2.60648 1.33694 2.93248 1.33357 3.61448C1.32827 4.56848 1.95561 6.33981 4.97627 9.35981C7.98294 12.3651 9.75161 12.9998 10.7076 12.9998H10.7216C11.4036 12.9965 11.7289 12.6618 11.8863 12.5011C11.9343 12.4518 11.9729 12.4158 12.0003 12.3931C12.6643 11.7251 13.0043 11.2278 13.001 10.9091C12.9963 10.5838 12.5916 10.1991 12.0323 9.66715C11.8543 9.49782 11.6609 9.31381 11.4569 9.10981C10.9283 8.58248 10.6663 8.67248 10.0903 8.87515C9.29361 9.15448 8.20027 9.53448 6.50161 7.83515C4.80027 6.13515 5.18094 5.04315 5.45961 4.24648C5.66094 3.67048 5.75294 3.40781 5.22361 2.87848C5.01627 2.67181 4.83027 2.47582 4.65894 2.29581C4.13027 1.73982 3.74894 1.33782 3.42561 1.33315H3.42027C3.10094 1.33315 2.60494 1.67448 1.90294 2.37648C1.90494 2.37448 1.90627 2.37381 1.90627 2.37381ZM10.7083 13.9998C9.04694 13.9998 6.88094 12.6771 4.26961 10.0671C1.64827 7.44648 0.323608 5.27381 0.333552 3.60915C0.339608 2.50915 0.916275 1.94582 1.13294 1.73448C1.14427 1.72048 1.18294 1.68248 1.19627 1.66915C2.15227 0.712482 2.79694 0.325815 3.43827 0.333046C4.18294 0.343148 4.71294 0.900482 5.38361 1.60648C5.54961 1.78115 5.72961 1.97115 5.93027 2.17115C6.90361 3.14448 6.62628 3.93848 6.40361 4.57581C6.16094 5.27115 5.95094 5.87115 7.20827 7.12848C8.46694 8.38581 9.06694 8.17581 9.75961 7.93115C10.3976 7.70848 11.1896 7.42981 12.1643 8.40315C12.3616 8.60048 12.5489 8.77848 12.7216 8.94315C13.4309 9.61715 13.9909 10.1498 14.0004 10.8965C14.0083 11.5331 13.6216 12.1818 12.6669 13.1371L12.2443 12.8505L12.6016 13.1998C12.3903 13.4165 11.8276 13.9938 10.7269 13.9998H10.7083Z" fill="white"/>
</svg>
