<svg width="14" height="14" viewBox="0 0 14 14" fill="none" xmlns="http://www.w3.org/2000/svg">
<path fill-rule="evenodd" clip-rule="evenodd" d="M7.00004 0.333344C10.676 0.333344 13.6667 3.32401 13.6667 7.00001C13.6667 10.676 10.676 13.6667 7.00004 13.6667C3.32404 13.6667 0.333374 10.676 0.333374 7.00001C0.333374 3.32401 3.32404 0.333344 7.00004 0.333344ZM7.00004 1.33334C3.87537 1.33334 1.33337 3.87534 1.33337 7.00001C1.33337 10.1247 3.87537 12.6667 7.00004 12.6667C10.1247 12.6667 12.6667 10.1247 12.6667 7.00001C12.6667 3.87534 10.1247 1.33334 7.00004 1.33334ZM6.77417 3.73028C7.05084 3.73028 7.27417 3.95428 7.27417 4.23028V7.17828L9.54417 8.53161C9.78084 8.67361 9.85884 8.98028 9.71751 9.21761C9.62351 9.37428 9.45751 9.46161 9.28751 9.46161C9.20017 9.46161 9.11217 9.43894 9.03151 9.39161L6.51817 7.89228C6.36751 7.80161 6.27417 7.63828 6.27417 7.46228V4.23028C6.27417 3.95428 6.49817 3.73028 6.77417 3.73028Z" fill="white"/>
</svg>
