<svg width="18" height="15" viewBox="0 0 18 15" fill="none" xmlns="http://www.w3.org/2000/svg">
<path d="M17.7168 2.00001C17.0751 2.29168 16.3834 2.48334 15.6668 2.57501C16.4001 2.13334 16.9668 1.43334 17.2334 0.591677C16.5418 1.00834 15.7751 1.30001 14.9668 1.46668C14.3084 0.75001 13.3834 0.333344 12.3334 0.333344C10.3751 0.333344 8.77511 1.93334 8.77511 3.90834C8.77511 4.19168 8.80845 4.46668 8.86678 4.72501C5.90011 4.57501 3.25845 3.15001 1.50011 0.991677C1.19178 1.51668 1.01678 2.13334 1.01678 2.78334C1.01678 4.02501 1.64178 5.12501 2.60845 5.75001C2.01678 5.75001 1.46678 5.58334 0.983447 5.33334V5.35834C0.983447 7.09168 2.21678 8.54168 3.85011 8.86668C3.32572 9.01018 2.77519 9.03015 2.24178 8.92501C2.46812 9.63541 2.91139 10.257 3.50929 10.7025C4.10719 11.1479 4.82965 11.3948 5.57511 11.4083C4.31147 12.4087 2.74511 12.9494 1.13345 12.9417C0.850114 12.9417 0.566781 12.925 0.283447 12.8917C1.86678 13.9083 3.75011 14.5 5.76678 14.5C12.3334 14.5 15.9418 9.05001 15.9418 4.32501C15.9418 4.16668 15.9418 4.01668 15.9334 3.85834C16.6334 3.35834 17.2334 2.72501 17.7168 2.00001Z" fill="white"/>
</svg>
