<svg width="18" height="17" viewBox="0 0 18 17" fill="none" xmlns="http://www.w3.org/2000/svg">
<path d="M14.8747 2.59166C14.1107 1.81993 13.2007 1.20805 12.1977 0.791703C11.1948 0.375356 10.1189 0.162877 9.03301 0.16666C4.48301 0.16666 0.774675 3.87499 0.774675 8.42499C0.774675 9.88333 1.15801 11.3 1.87467 12.55L0.708008 16.8333L5.08301 15.6833C6.29134 16.3417 7.64967 16.6917 9.03301 16.6917C13.583 16.6917 17.2913 12.9833 17.2913 8.43333C17.2913 6.22499 16.433 4.14999 14.8747 2.59166ZM9.03301 15.2917C7.79967 15.2917 6.59134 14.9583 5.53301 14.3333L5.28301 14.1833L2.68301 14.8667L3.37467 12.3333L3.20801 12.075C2.5228 10.9808 2.15896 9.71603 2.15801 8.42499C2.15801 4.64166 5.24134 1.55833 9.02467 1.55833C10.858 1.55833 12.583 2.27499 13.8747 3.57499C14.5142 4.21163 15.0211 4.96888 15.3658 5.80285C15.7106 6.63682 15.8864 7.53092 15.883 8.43333C15.8997 12.2167 12.8163 15.2917 9.03301 15.2917ZM12.7997 10.1583C12.5913 10.0583 11.5747 9.55833 11.3913 9.48333C11.1997 9.41666 11.0663 9.38333 10.9247 9.58333C10.783 9.79166 10.3913 10.2583 10.2747 10.3917C10.158 10.5333 10.033 10.55 9.82467 10.4417C9.61634 10.3417 8.94967 10.1167 8.16634 9.41666C7.54967 8.86666 7.14134 8.19166 7.01634 7.98333C6.89967 7.77499 6.99967 7.66666 7.10801 7.55833C7.19967 7.46666 7.31634 7.31666 7.41634 7.19999C7.51634 7.08333 7.55801 6.99166 7.62467 6.85833C7.69134 6.71666 7.65801 6.59999 7.60801 6.49999C7.55801 6.39999 7.14134 5.38333 6.97467 4.96666C6.80801 4.56666 6.63301 4.61666 6.50801 4.60833H6.10801C5.96634 4.60833 5.74967 4.65833 5.55801 4.86666C5.37467 5.07499 4.84134 5.57499 4.84134 6.59166C4.84134 7.60833 5.58301 8.59166 5.68301 8.72499C5.78301 8.86666 7.14134 10.95 9.20801 11.8417C9.69967 12.0583 10.083 12.1833 10.383 12.275C10.8747 12.4333 11.3247 12.4083 11.683 12.3583C12.083 12.3 12.908 11.8583 13.0747 11.375C13.2497 10.8917 13.2497 10.4833 13.1913 10.3917C13.133 10.3 13.008 10.2583 12.7997 10.1583Z" fill="white"/>
</svg>
